#!OML:ASF E:\acrobat2\Project_11_07_03\Capture day 1\Session 1\Acrobat.ASF
:FULLY-SPECIFIED
:DEGREES
505
root 10.8344 7.88347 -0.617895 196.316 0.634427 -180.058
lowerback 40.0954 -4.12532 -3.63037
upperback 19.4274 1.37043 -1.2925
thorax 2.19393 3.26405 0.183217
lowerneck 2.09072 -2.48552 -4.27812
upperneck -17.7251 -2.6555 1.82569
head -5.59535 -0.70774 1.38432
rclavicle -8.54774e-015 -3.2054e-015
rhumerus 10.665 21.9641 -93.6697
rradius 20.9449
rwrist -10.313
rhand -36.2941 286.156
rfingers 7.12502
rthumb -9.39357 -616.386
lclavicle -8.54774e-015 -3.2054e-015
lhumerus 19.2588 -40.4228 82.1423
lradius 22.2447
lwrist 31.1052
lhand -57.2305 -73.2665
lfingers 7.12502
lthumb -29.5116 -45.5919
rfemur -45.683 -17.1007 -55.6811
rtibia 6.92171
rfoot -8.96233 -42.8773
rtoes 32.0169
lfemur -42.0654 19.6085 46.475
ltibia -2.89691
lfoot -46.7814 3.30808
ltoes 57.9043
506
root 10.8175 8.10236 -0.777594 198.156 0.940589 -180.142
lowerback 39.5492 -4.22385 -3.36227
upperback 19.5347 1.28114 -1.61739
thorax 2.47089 3.21494 -0.24657
lowerneck 2.15493 -2.48678 -4.05446
upperneck -18.3271 -2.61462 1.77077
head -5.79997 -0.662844 1.33195
rclavicle 1.43125e-014 -1.25234e-014
rhumerus 11.5347 21.2914 -93.7927
rradius 20.7792
rwrist -9.18842
rhand -35.9049 287.434
rfingers 7.12502
rthumb -9.018 -617.646
lclavicle 1.43125e-014 -1.25234e-014
lhumerus 20.565 -41.1963 80.5841
lradius 22.435
lwrist 31.7622
lhand -57.3067 -71.2358
lfingers 7.12502
lthumb -29.5843 -43.574
rfemur -46.2388 -17.8696 -55.5297
rtibia 7.03931
rfoot -8.78547 -42.9531
rtoes 29.783
lfemur -41.9866 20.1633 46.0125
ltibia -3.38965
lfoot -46.1667 4.45938
ltoes 57.8829
507
root 10.8334 8.32865 -0.953032 199.702 1.4663 -179.995
lowerback 39.3732 -4.00468 -3.66578
upperback 19.6519 1.4363 -1.83881
thorax 2.66885 3.24851 -0.358176
lowerneck 1.90526 -2.4266 -3.84627
upperneck -18.7167 -2.44564 1.9156
head -5.88435 -0.574918 1.33256
rclavicle -6.55989e-015 2.50966e-015
rhumerus 12.4106 20.7465 -94.0715
rradius 20.5938
rwrist -8.04651
rhand -35.0967 289.151
rfingers 7.12502
rthumb -8.23807 -619.331
lclavicle -6.55989e-015 2.50966e-015
lhumerus 21.6944 -41.3854 79.2296
lradius 22.43
lwrist 32.2063
lhand -57.1679 -70.6695
lfingers 7.12502
lthumb -29.4518 -42.9844
rfemur -46.6396 -17.0362 -56.0354
rtibia 6.51501
rfoot -11.0112 -43.2927
rtoes 29.1047
lfemur -41.1814 20.6303 45.878
ltibia -4.14872
lfoot -45.1478 5.91532
ltoes 57.697
508
root 10.8546 8.54155 -1.1243 201.589 1.76265 -180.054
lowerback 38.7243 -3.79623 -4.02112
upperback 19.7022 1.48088 -1.99154
thorax 2.93267 3.18375 -0.326028
lowerneck 1.71007 -2.37792 -3.59984
upperneck -19.1129 -2.28284 2.12746
head -5.97962 -0.499216 1.34905
rclavicle 1.74931e-014 1.4238e-014
rhumerus 13.3091 24.2384 -92.4117
rradius 21.5686
rwrist -11.4641
rhand -34.5211 289.809
rfingers 7.12502
rthumb -7.6826 -619.969
lclavicle 1.74931e-014 1.4238e-014
lhumerus 22.8558 -42.0881 77.5029
lradius 22.6486
lwrist 33.1611
lhand -57.043 -69.0861
lfingers 7.12502
lthumb -29.3325 -41.38
rfemur -46.8512 -16.4993 -57.0322
rtibia 6.00824
rfoot -13.9103 -43.4139
rtoes 29.7259
lfemur -41.0486 21.3548 45.4801
ltibia -4.69964
lfoot -43.9496 7.45473
ltoes 57.6451
509
root 10.8586 8.7719 -1.30444 202.688 1.88504 -180.244
lowerback 39.2028 -3.77542 -4.27524
upperback 19.6857 1.4291 -2.19899
thorax 2.78745 3.14743 -0.414853
lowerneck 1.58897 -2.37368 -3.28685
upperneck -19.5643 -2.18757 2.26372
head -6.10558 -0.453499 1.33504
rclavicle 4.37326e-015 8.02593e-015
rhumerus 13.868 24.413 -92.162
rradius 22.1274
rwrist -11.5476
rhand -33.8602 291.102
rfingers 7.12502
rthumb -7.04465 -621.239
lclavicle 4.37326e-015 8.02593e-015
lhumerus 24.0787 -42.9813 75.6857
lradius 22.934
lwrist 34.3947
lhand -56.7617 -66.1695
lfingers 7.12502
lthumb -29.0639 -38.4167
rfemur -46.34 -15.1623 -58.0069
rtibia 5.24437
rfoot -17.2447 -43.0223
rtoes 30.9754
lfemur -40.7171 21.1085 44.8903
ltibia -5.38014
lfoot -42.5936 9.30148
ltoes 58.0107
510
root 10.872 8.97869 -1.48492 204.308 1.92089 -180.171
lowerback 38.9231 -3.65655 -4.31104
upperback 19.6451 1.4711 -2.22079
thorax 2.82475 3.1118 -0.42714
lowerneck 1.55566 -2.40123 -3.10651
upperneck -20.0645 -2.13804 2.45338
head -6.25903 -0.423846 1.36383
rclavicle -3.02153e-014 -9.0447e-015
rhumerus 14.1294 22.3665 -92.9294
rradius 22.2434
rwrist -9.26024
rhand -33.0893 293.016
rfingers 7.12502
rthumb -6.30043 -623.129
lclavicle -3.02153e-014 -9.0447e-015
lhumerus 24.2176 -42.1495 75.8212
lradius 22.6161
lwrist 33.6503
lhand -56.3359 -63.443
lfingers 7.12502
lthumb -28.6572 -35.6208
rfemur -45.9911 -14.109 -59.0196
rtibia 4.48503
rfoot -21.9186 -42.2596
rtoes 33.0925
lfemur -40.6081 21.6232 44.7167
ltibia -5.93064
lfoot -41.2167 11.0962
ltoes 58.3287
511
root 10.8674 9.19205 -1.66324 205.594 1.77166 -180.007
lowerback 39.1382 -3.95429 -3.8857
upperback 19.6315 1.2086 -2.44693
thorax 2.73459 3.01375 -0.815088
lowerneck 1.4036 -2.37756 -3.30042
upperneck -20.6027 -1.97331 2.95933
head -6.3987 -0.327853 1.5488
rclavicle -7.15625e-015 1.03865e-014
rhumerus 15.415 25.3141 -91.3293
rradius 21.962
rwrist -12.2487
rhand -33.2742 294.435
rfingers 7.12502
rthumb -6.47895 -624.554
lclavicle -7.15625e-015 1.03865e-014
lhumerus 25.3225 -41.9993 74.5837
lradius 22.4937
lwrist 34.0897
lhand -56.1741 -60.825
lfingers 7.12502
lthumb -28.5026 -32.9768
rfemur -45.3182 -12.4782 -59.9762
rtibia 3.54754
rfoot -26.7692 -41.2335
rtoes 34.878
lfemur -40.6154 21.7453 44.6423
ltibia -6.31352
lfoot -39.935 12.5332
ltoes 58.3707
512
root 10.8821 9.38789 -1.83586 207.198 1.77933 -179.738
lowerback 38.7904 -3.87856 -3.74956
upperback 19.5961 1.24107 -2.43865
thorax 2.79112 2.98145 -0.880193
lowerneck 1.25513 -2.42579 -3.2687
upperneck -21.0189 -1.95653 3.14072
head -6.50406 -0.302199 1.60024
rclavicle -7.55382e-015 -6.23687e-015
rhumerus 16.3369 26.8711 -90.1007
rradius 22.4269
rwrist -13.9101
rhand -33.2118 295.366
rfingers 7.12502
rthumb -6.41871 -625.484
lclavicle -7.55382e-015 -6.23687e-015
lhumerus 26.6252 -42.7914 72.8711
lradius 22.56
lwrist 35.2787
lhand -56.2827 -58.1692
lfingers 7.12502
lthumb -28.6063 -30.3384
rfemur -45.1866 -10.9918 -61.0248
rtibia 2.86734
rfoot -32.0897 -39.7876
rtoes 36.7357
lfemur -40.5538 22.4581 44.7843
ltibia -6.57401
lfoot -38.6163 13.7061
ltoes 58.7227
513
root 10.9068 9.57439 -1.99611 208.917 1.92802 -179.502
lowerback 38.2629 -3.52904 -3.91863
upperback 19.5064 1.46806 -2.28789
thorax 2.85021 2.99128 -0.692838
lowerneck 1.29598 -2.47969 -3.1328
upperneck -21.4162 -2.00537 3.06923
head -6.64006 -0.305492 1.55924
rclavicle 7.15625e-015 3.63403e-015
rhumerus 17.0041 26.8746 -89.4995
rradius 22.5892
rwrist -13.8336
rhand -32.2674 296.615
rfingers 7.12502
rthumb -5.50695 -626.707
lclavicle 7.15625e-015 3.63403e-015
lhumerus 27.9008 -43.7178 71.3093
lradius 22.5299
lwrist 36.4609
lhand -56.2822 -55.4587
lfingers 7.12502
lthumb -28.6059 -27.6279
rfemur -45.3696 -9.65398 -62.1772
rtibia 2.34897
rfoot -37.5982 -37.7956
rtoes 39.2891
lfemur -40.6405 23.3083 44.8222
ltibia -6.60873
lfoot -38.2594 13.7783
ltoes 58.3971
514
root 10.921 9.75915 -2.15624 210.26 2.06851 -179.517
lowerback 38.2219 -3.33048 -4.13514
upperback 19.3792 1.52886 -2.29304
thorax 2.72582 2.95424 -0.611855
lowerneck 1.3596 -2.49907 -3.25934
upperneck -21.7471 -1.98083 3.30007
head -6.75339 -0.282696 1.65593
rclavicle 2.5842e-014 1.74993e-014
rhumerus 17.87 28.4437 -88.0544
rradius 22.6936
rwrist -15.5231
rhand -31.4083 297.776
rfingers 7.12502
rthumb -4.67743 -627.848
lclavicle 2.5842e-014 1.74993e-014
lhumerus 28.8763 -43.8051 70.4645
lradius 21.9327
lwrist 36.8312
lhand -55.9724 -52.4356
lfingers 7.12502
lthumb -28.3098 -24.5553
rfemur -45.2331 -8.47045 -63.1401
rtibia 1.78744
rfoot -41.9891 -35.6353
rtoes 41.7538
lfemur -40.5877 23.6976 44.5812
ltibia -6.80009
lfoot -38.1766 13.9163
ltoes 58.1328
515
root 10.9206 9.93497 -2.33118 211.236 1.94531 -179.671
lowerback 38.4858 -3.45536 -4.02795
upperback 19.2936 1.35496 -2.403
thorax 2.54824 2.86569 -0.745432
lowerneck 1.34982 -2.51115 -3.73177
upperneck -21.972 -1.91384 3.86612
head -6.81145 -0.24261 1.91602
rclavicle 2.66371e-014 6.34869e-015
rhumerus 18.9737 29.5572 -86.9625
rradius 22.2665
rwrist -16.7989
rhand -30.9606 299.071
rfingers 7.12502
rthumb -4.24514 -629.134
lclavicle 2.66371e-014 6.34869e-015
lhumerus 29.9402 -44.0554 69.3659
lradius 21.3953
lwrist 37.4902
lhand -55.6264 -48.0503
lfingers 7.12502
lthumb -27.9791 -20.1156
rfemur -44.3202 -6.51505 -64.5558
rtibia 0.426572
rfoot -45.6183 -35.0569
rtoes 41.6922
lfemur -40.6298 23.5881 44.2321
ltibia -7.01529
lfoot -38.2884 13.7206
ltoes 57.9681
516
root 10.9233 10.1004 -2.50226 212.344 1.80564 -179.789
lowerback 38.4907 -3.54025 -3.85796
upperback 19.2222 1.23694 -2.45841
thorax 2.46063 2.79467 -0.861536
lowerneck 1.32881 -2.53994 -4.07466
upperneck -22.1788 -1.89182 4.25464
head -6.86468 -0.220114 2.09977
rclavicle -2.38542e-015 6.21202e-015
rhumerus 19.2583 27.8683 -87.6254
rradius 21.9815
rwrist -15.0163
rhand -30.1151 300.401
rfingers 7.12502
rthumb -3.4286 -449.551
lclavicle -2.38542e-015 6.21202e-015
lhumerus 31.2083 -44.4818 68.1699
lradius 20.7365
lwrist 38.1975
lhand -55.2608 -43.7669
lfingers 7.12502
lthumb -27.6296 -15.7756
rfemur -43.6829 -5.2744 -65.3886
rtibia -0.278195
rfoot -48.8698 -33.0877
rtoes 43.1316
lfemur -40.6857 23.6718 43.9589
ltibia -7.24711
lfoot -38.4848 13.3434
ltoes 57.8893
517
root 10.931 10.2594 -2.6717 213.435 1.79152 -179.857
lowerback 38.4333 -3.54378 -3.79383
upperback 19.1915 1.20174 -2.52528
thorax 2.44182 2.75813 -0.955439
lowerneck 2.02464 -2.75496 -2.62853
upperneck -23.9301 -2.2196 2.88665
head -7.59464 -0.28041 1.44568
rclavicle -7.95139e-015 2.41026e-015
rhumerus 19.9064 27.3936 -87.4232
rradius 21.7067
rwrist -14.7649
rhand -29.1092 301.648
rfingers 7.12502
rthumb -2.45713 -448.318
lclavicle -7.95139e-015 2.41026e-015
lhumerus 32.2491 -44.4838 67.3768
lradius 20.1462
lwrist 38.3544
lhand -55.2865 -47.5258
lfingers 7.12502
lthumb -27.6542 -19.5385
rfemur -43.1054 -2.42962 -67.6298
rtibia -1.7814
rfoot -54.1187 -31.2574
rtoes 43.8592
lfemur -40.526 23.8147 43.7366
ltibia -7.58228
lfoot -38.7624 13.0459
ltoes 57.7622
518
root 10.9412 10.41 -2.84372 214.395 1.67347 -179.696
lowerback 38.4021 -3.55366 -3.5803
upperback 19.2123 1.23777 -2.49569
thorax 2.46582 2.76933 -1.04489
lowerneck 1.72303 -2.77922 -2.95941
upperneck -23.8412 -2.19289 3.2845
head -7.50019 -0.267429 1.62598
rclavicle 0 1.03368e-014
rhumerus 21.1477 29.2485 -85.497
rradius 21.5773
rwrist -17.5074
rhand -28.4765 302.842
rfingers 7.12502
rthumb -1.84609 -447.129
lclavicle 0 1.03368e-014
lhumerus 33.1136 -44.2667 66.9135
lradius 19.6708
lwrist 38.1167
lhand -55.0226 -42.168
lfingers 7.12502
lthumb -27.4018 -14.1405
rfemur -42.8361 -0.800828 -68.3668
rtibia -2.38387
rfoot -57.2973 -28.957
rtoes 45.1717
lfemur -40.1623 23.9189 43.8437
ltibia -8.0056
lfoot -38.958 12.8546
ltoes 57.6447
